<svg width="512" height="512" viewBox="0 0 512 512" fill="none" xmlns="http://www.w3.org/2000/svg">
<rect width="512" height="512" fill="white"/>
<path d="M70 248.01C70 222.893 74.9408 199.447 84.8613 177.712C94.7818 155.978 108.087 137.004 124.738 120.829C141.428 104.654 160.88 91.9789 183.133 82.764C205.347 73.588 228.806 69 253.471 69C279.576 69 304.241 74.3268 327.428 84.9414C350.615 95.556 370.689 109.825 387.612 127.711C404.535 145.596 417.802 166.242 427.489 189.688C437.137 213.133 442 237.901 442 263.99C442 290.08 437.02 312.553 427.139 334.288C417.218 356.022 403.913 374.996 387.262 391.171C370.572 407.346 351.12 420.06 328.867 429.236C306.614 438.412 283.194 443 258.529 443C232.424 442.533 207.876 436.973 184.922 426.32C161.969 415.705 141.895 401.552 124.738 383.939C107.581 366.287 94.1594 345.758 84.5112 322.351C74.8241 298.906 70 274.138 70 248.049L70 248.01ZM101.901 227.014C104.819 249.254 112.289 272.816 124.388 297.661C136.448 322.545 151.815 345.136 170.45 365.432C189.046 385.728 210.093 401.786 233.552 413.645C257.012 425.503 281.288 429.469 306.42 425.62C323.81 422.704 339.527 417.183 353.571 408.94C367.577 400.736 379.053 390.355 388.001 377.757C396.949 365.198 403.329 350.929 407.22 334.988C411.071 319.046 411.81 302.133 409.398 284.247C407.453 266.867 403.096 249.721 396.366 232.807C389.596 215.894 381.232 199.836 371.35 184.594C361.43 169.392 350.07 155.239 337.27 142.214C324.471 129.149 311.049 117.835 297.005 108.154C282.96 99.4441 268.488 93.0676 253.51 88.9461C238.532 84.8636 222.581 84.0082 205.658 86.4189C188.268 89.335 172.551 94.895 158.507 103.099C144.462 111.303 132.986 121.568 124.077 133.893C115.129 146.218 108.709 160.332 104.858 176.274C100.968 192.215 100.034 209.128 101.94 227.014H101.901Z" fill="black"/>
</svg>
