<svg width="148" height="41" viewBox="0 0 148 41" fill="none" xmlns="http://www.w3.org/2000/svg">
<g clip-path="url(#clip0_904_834)">
<path d="M0 11.7813C0 10.2088 0.309145 8.74099 0.929868 7.38027C1.55059 6.01954 2.38309 4.83165 3.42493 3.81902C4.46921 2.80639 5.68631 2.01284 7.07868 1.43593C8.46861 0.861456 9.93644 0.574219 11.4797 0.574219C13.1131 0.574219 14.6564 0.907706 16.1072 1.57224C17.558 2.23678 18.814 3.13014 19.8729 4.24987C20.9318 5.36961 21.7618 6.66218 22.3679 8.13001C22.9716 9.59783 23.2759 11.1484 23.2759 12.7818C23.2759 14.4151 22.9643 15.8221 22.346 17.1828C21.7253 18.5436 20.8928 19.7314 19.851 20.7441C18.8067 21.7567 17.5896 22.5527 16.1972 23.1272C14.8049 23.7016 13.3395 23.9889 11.7962 23.9889C10.1628 23.9597 8.62684 23.6116 7.19065 22.9446C5.75447 22.2801 4.49842 21.394 3.42493 20.2913C2.35145 19.1862 1.51164 17.9009 0.90796 16.4355C0.301842 14.9677 0 13.4171 0 11.7838L0 11.7813ZM1.99605 10.4668C2.17862 11.8592 2.64599 13.3343 3.40302 14.8898C4.15763 16.4477 5.11914 17.862 6.28513 19.1326C7.44868 20.4033 8.76559 21.4086 10.2334 22.1511C11.7012 22.8935 13.2202 23.1418 14.7927 22.9008C15.8808 22.7182 16.8642 22.3726 17.743 21.8565C18.6193 21.3429 19.3374 20.693 19.8972 19.9043C20.4571 19.118 20.8563 18.2247 21.0997 17.2266C21.3407 16.2286 21.387 15.1697 21.236 14.05C21.1143 12.9619 20.8417 11.8884 20.4206 10.8295C19.997 9.77066 19.4737 8.76533 18.8554 7.81112C18.2347 6.85935 17.5239 5.9733 16.723 5.15784C15.9222 4.33994 15.0824 3.63159 14.2036 3.02547C13.3249 2.4802 12.4193 2.08099 11.4822 1.82297C10.545 1.56738 9.54697 1.51382 8.48809 1.66474C7.4 1.84731 6.41658 2.1954 5.53783 2.70902C4.65908 3.22264 3.94098 3.86527 3.38355 4.63691C2.82368 5.40856 2.42204 6.29218 2.18105 7.2902C1.93763 8.28823 1.87921 9.34711 1.99849 10.4668H1.99605Z" fill="black"/>
<path d="M28.0864 11.4201C28.1765 9.78674 28.5781 8.31161 29.2889 6.99714C29.9997 5.68023 30.9223 4.56293 32.0566 3.64036C33.191 2.7178 34.4835 1.9924 35.9368 1.46174C37.39 0.93352 38.887 0.63898 40.4279 0.578125C43.2418 0.607336 45.6468 1.34977 47.6429 2.80056V6.97523C47.0684 6.22062 46.4331 5.5074 45.7369 4.84286C45.0407 4.17832 44.2544 3.58681 43.3781 3.07319C42.4093 2.49872 41.4186 2.08247 40.406 1.82444C39.3933 1.56885 38.3101 1.5299 37.1612 1.71003C36.0122 1.8926 34.9898 2.23095 34.0989 2.72997C33.2056 3.22898 32.4583 3.85701 31.8522 4.61405C31.246 5.37108 30.8006 6.2401 30.5133 7.22352C30.2261 8.20694 30.1117 9.25852 30.1725 10.3758C30.2334 11.4347 30.4963 12.5082 30.9661 13.5963C31.4359 14.6844 32.025 15.7213 32.7358 16.7048C33.4466 17.6882 34.2401 18.5888 35.1189 19.4043C35.9952 20.2222 36.8569 20.9013 37.704 21.4466C38.6412 22.0527 39.6319 22.4909 40.6762 22.7635C41.7204 23.0361 42.8158 23.097 43.9648 22.9461C45.3255 22.7635 46.5499 22.2961 47.6404 21.5391V22.0381C46.6108 22.7343 45.5081 23.2333 44.3275 23.5352C43.1469 23.837 41.9517 23.9879 40.7419 23.9879C38.6241 23.9879 36.6427 23.5108 34.7975 22.559C32.9524 21.6073 31.4091 20.2368 30.1701 18.4525C29.4131 17.3936 28.8532 16.2739 28.4905 15.0958C28.1278 13.9152 27.9915 12.6908 28.0816 11.4201H28.0864Z" fill="black"/>
<path d="M52.0448 11.3288C52.1349 9.75628 52.4976 8.31036 53.1329 6.99589C53.7683 5.67898 54.6081 4.53977 55.6523 3.57095C56.6966 2.60214 57.8918 1.84753 59.2379 1.30227C60.584 0.757006 62.0275 0.484375 63.5708 0.484375C65.1141 0.484375 66.4529 0.757006 67.7674 1.30227C69.0843 1.84753 70.2552 2.58023 71.2848 3.50279C72.3121 4.42536 73.1689 5.52319 73.848 6.79141C74.5296 8.06207 74.9751 9.42279 75.1869 10.876H54.1334C54.5569 13.0546 55.3651 15.0361 56.5603 16.8204C57.7555 18.6046 59.2452 20.1333 61.0295 21.404C61.9058 22.0101 62.8357 22.4409 63.8191 22.6965C64.8025 22.9546 65.8225 23.0081 66.8813 22.8548C67.9402 22.7038 68.9163 22.3484 69.8073 21.7886C70.6982 21.2287 71.4479 20.5106 72.054 19.6343V20.496C70.9659 21.6157 69.7172 22.4629 68.3102 23.0373C66.9032 23.6118 65.4281 23.899 63.8873 23.899C61.8912 23.899 60.0388 23.4219 58.33 22.4702C56.6211 21.5184 55.1923 20.1504 54.0409 18.3636C53.3447 17.3048 52.8238 16.185 52.4757 15.0069C52.1276 13.8263 51.984 12.6019 52.0448 11.3312V11.3288ZM54.0409 10.2845V10.4208H72.3267C71.6913 8.97003 70.8759 7.58496 69.8754 6.26806C68.8774 4.95115 67.6968 3.85576 66.3361 2.97944C65.4573 2.40497 64.5348 1.98872 63.5684 1.73069C62.5996 1.4751 61.5869 1.43615 60.5281 1.61628C59.4083 1.79885 58.4322 2.15424 57.6021 2.68247C56.7696 3.21312 56.0832 3.86306 55.5379 4.63227C54.9927 5.40391 54.6008 6.27293 54.3573 7.24174C54.1139 8.21056 54.0092 9.22319 54.0385 10.2821L54.0409 10.2845Z" fill="black"/>
<path d="M78.5416 18.7717C78.5708 17.6228 78.8824 16.6321 79.4715 15.7996C80.0606 14.9671 80.8249 14.249 81.7621 13.6453C82.6993 13.0416 83.7508 12.5401 84.9168 12.1482C86.0804 11.7563 87.261 11.4375 88.4562 11.1965C89.6514 10.9555 90.8076 10.7802 91.9274 10.6755C93.0471 10.5709 94.0135 10.4881 94.8314 10.4248C94.8922 10.4248 94.9604 10.4175 95.0358 10.4029C95.1113 10.3883 95.1941 10.381 95.2841 10.381C95.2549 9.77732 95.2306 9.19311 95.216 8.63324C95.2014 8.07337 95.1624 7.5062 95.1016 6.93173C95.0407 6.23555 94.8971 5.5418 94.6707 4.84561C94.4443 4.14943 94.1327 3.5068 93.7408 2.91772C93.3465 2.32864 92.8621 1.82963 92.2901 1.42068C91.7156 1.01173 91.0486 0.778048 90.294 0.717193C89.1743 0.595482 88.0545 0.853508 86.9372 1.48884C85.8175 2.12417 84.8049 2.84956 83.8969 3.66745C82.8672 4.63627 81.8692 5.73897 80.9028 6.98041V2.79844C81.5065 2.37489 82.1589 1.98055 82.8551 1.61785C83.4587 1.31601 84.1403 1.02147 84.8974 0.734232C85.652 0.446995 86.4236 0.242522 87.2123 0.120811C88.1495 -0.000899138 89.0793 -0.0301097 90.0019 0.0307456C90.9245 0.0916008 91.8397 0.274166 92.7477 0.576008C93.8066 0.938706 94.6829 1.43772 95.3791 2.07305C96.0752 2.70838 96.6351 3.44107 97.0587 4.27357C97.4822 5.10607 97.7768 6.00673 97.9423 6.97311C98.1078 7.94193 98.193 8.92535 98.193 9.92337V23.9882H95.2427V17.0921C94.8484 18.0001 94.3056 18.8691 93.6094 19.7016C92.9132 20.5341 92.127 21.2595 91.2506 21.8802C90.3719 22.5009 89.4274 22.9999 88.4148 23.3773C87.4022 23.757 86.3968 23.959 85.3964 23.9907C84.761 24.0199 84.1403 24.0126 83.5366 23.9688C82.9305 23.9225 82.3268 23.7813 81.7207 23.5379C80.6618 23.146 79.8537 22.5326 79.2938 21.7001C78.7339 20.8676 78.4832 19.8939 78.5441 18.7742L78.5416 18.7717ZM81.5795 19.7235C81.7913 20.539 82.2368 21.1986 82.9183 21.6976C83.5999 22.1967 84.4227 22.4766 85.3915 22.5374C86.6622 22.6592 87.7576 22.5301 88.6801 22.1528C89.6027 21.7755 90.5472 21.1938 91.516 20.4051C92.2706 19.799 92.8913 19.1344 93.3757 18.409C93.8601 17.6836 94.2374 16.8974 94.5101 16.0503C94.7827 15.2032 94.9701 14.3342 95.0772 13.4408C95.1819 12.5499 95.2354 11.6492 95.2354 10.7413C94.2374 10.8313 93.1323 10.9603 91.9225 11.1259C90.7127 11.2914 89.5175 11.5348 88.3369 11.8513C87.1563 12.1677 86.0536 12.584 85.0239 13.1C83.9943 13.6136 83.1642 14.2806 82.5289 15.0961C81.4992 16.4884 81.1828 18.0317 81.5771 19.7235H81.5795Z" fill="black"/>
<path d="M105.039 0.485222H107.989V2.89022C108.866 2.04312 109.864 1.42239 110.983 1.03048C112.103 0.638577 113.252 0.441406 114.433 0.441406C115.703 0.441406 116.967 0.660485 118.22 1.09864C119.476 1.5368 120.603 2.17943 121.601 3.02654C122.599 3.87364 123.4 4.91061 124.006 6.13502C124.61 7.35943 124.914 8.74449 124.914 10.2878L121.964 9.06338C121.964 7.94364 121.752 6.89206 121.329 5.91107C120.905 4.92765 120.331 4.07325 119.605 3.34785C118.88 2.62246 118.026 2.04798 117.042 1.62443C116.059 1.20088 115.007 0.989103 113.887 0.989103C112.707 0.989103 111.611 1.22279 110.599 1.69259C109.586 2.16239 108.715 2.79042 107.989 3.57667V23.9948H105.039V0.485222Z" fill="black"/>
<path d="M127.681 18.7717C127.71 17.6228 128.022 16.6321 128.611 15.7996C129.2 14.9671 129.964 14.249 130.901 13.6453C131.838 13.0416 132.89 12.5401 134.054 12.1482C135.217 11.7563 136.398 11.4375 137.593 11.1965C138.788 10.9555 139.944 10.7802 141.064 10.6755C142.184 10.5709 143.15 10.4881 143.968 10.4248C144.029 10.4248 144.097 10.4175 144.173 10.4029C144.248 10.3883 144.331 10.381 144.421 10.381C144.392 9.77732 144.367 9.19311 144.353 8.63324C144.338 8.07337 144.299 7.5062 144.238 6.93173C144.177 6.23555 144.034 5.5418 143.807 4.84561C143.581 4.14943 143.269 3.5068 142.878 2.91772C142.483 2.32864 141.999 1.82963 141.427 1.42068C140.852 1.01173 140.185 0.778048 139.431 0.717193C138.311 0.595482 137.191 0.853508 136.074 1.48884C134.954 2.12417 133.942 2.84956 133.034 3.66745C132.004 4.63627 131.006 5.73897 130.04 6.98041V2.79844C130.643 2.37489 131.296 1.98055 131.992 1.61785C132.595 1.31601 133.277 1.02147 134.034 0.734232C134.789 0.446995 135.56 0.242522 136.349 0.120811C137.286 -0.000899138 138.216 -0.0301097 139.139 0.0307456C140.061 0.0916008 140.976 0.274166 141.884 0.576008C142.943 0.938706 143.82 1.43772 144.516 2.07305C145.212 2.70838 145.772 3.44107 146.195 4.27357C146.619 5.10607 146.913 6.00673 147.079 6.97311C147.245 7.94193 147.33 8.92535 147.33 9.92337V23.9882H144.379V17.0921C143.985 18.0001 143.442 18.8691 142.746 19.7016C142.05 20.5341 141.264 21.2595 140.387 21.8802C139.509 22.5009 138.564 22.9999 137.552 23.3773C136.539 23.757 135.534 23.959 134.533 23.9907C133.898 24.0199 133.277 24.0126 132.673 23.9688C132.067 23.9225 131.464 23.7813 130.857 23.5379C129.799 23.146 128.99 22.5326 128.431 21.7001C127.871 20.8676 127.62 19.8939 127.681 18.7742V18.7717ZM130.721 19.7235C130.933 20.539 131.378 21.1986 132.06 21.6976C132.742 22.1967 133.564 22.4766 134.533 22.5374C135.804 22.6592 136.899 22.5301 137.822 22.1528C138.744 21.7755 139.689 21.1938 140.658 20.4051C141.412 19.799 142.033 19.1344 142.517 18.409C143.002 17.6836 143.379 16.8974 143.652 16.0503C143.924 15.2032 144.112 14.3342 144.219 13.4408C144.323 12.5499 144.377 11.6492 144.377 10.7413C143.379 10.8313 142.274 10.9603 141.064 11.1259C139.854 11.2914 138.659 11.5348 137.478 11.8513C136.298 12.1677 135.195 12.584 134.166 13.1C133.136 13.6136 132.306 14.2806 131.67 15.0961C130.641 16.4884 130.324 18.0317 130.719 19.7235H130.721Z" fill="black"/>
<path d="M35.8828 40.2352V35.8828H39.0132C39.2907 35.8828 39.5341 35.9437 39.7386 36.0629C39.9431 36.1822 40.1013 36.3477 40.2133 36.5547C40.3252 36.7616 40.3812 37.0001 40.3812 37.2703C40.3812 37.5405 40.3252 37.7815 40.2133 37.9933C40.1013 38.205 39.9431 38.3681 39.7362 38.4874C39.5293 38.6067 39.2834 38.6651 39.001 38.6651H36.7007V40.2352H35.8828ZM36.7007 37.9787H38.7844C39.0327 37.9787 39.2225 37.9154 39.354 37.7888C39.4854 37.6622 39.5512 37.4918 39.5512 37.2752C39.5512 37.1316 39.522 37.0074 39.4611 36.9003C39.4027 36.7956 39.315 36.7129 39.2006 36.6569C39.0862 36.6009 38.9475 36.5717 38.782 36.5717H36.6983V37.9787H36.7007Z" fill="black"/>
<path d="M43.7642 40.2352L45.9622 35.8828H46.8945L49.0926 40.2352H48.192L47.7222 39.298H45.0738L44.604 40.2352H43.7617H43.7642ZM45.4048 38.6237H47.3936L46.8167 37.4383C46.7947 37.392 46.7655 37.3263 46.7242 37.2387C46.6852 37.151 46.6438 37.0634 46.6049 36.9685C46.5635 36.876 46.527 36.7932 46.4929 36.7202C46.4588 36.6496 46.4369 36.6033 46.4223 36.5863H46.3712C46.3322 36.6715 46.2884 36.7689 46.2373 36.8808C46.1862 36.9928 46.1375 37.0999 46.0913 37.1997C46.045 37.302 46.0061 37.3823 45.9768 37.4407L45.3999 38.6189L45.4048 38.6237Z" fill="black"/>
<path d="M53.3438 40.2352V35.8828H56.6957C56.9902 35.8828 57.2361 35.9437 57.4332 36.0629C57.6304 36.1822 57.7764 36.3429 57.8738 36.5449C57.9712 36.7445 58.0199 36.9709 58.0199 37.2192C58.0199 37.4821 57.9517 37.7231 57.813 37.947C57.6766 38.171 57.4697 38.3389 57.1947 38.4533L58.127 40.2327H57.2093L56.3792 38.6043H54.1616V40.2327H53.3438V40.2352ZM54.1616 37.9227H56.4863C56.7054 37.9227 56.8782 37.8594 56.9999 37.7304C57.1216 37.6014 57.1849 37.4358 57.1849 37.2338C57.1849 37.095 57.1582 36.9758 57.1046 36.8784C57.0511 36.781 56.9732 36.7056 56.8661 36.6545C56.7614 36.6009 56.6348 36.5741 56.4863 36.5741H54.1616V37.9227Z" fill="black"/>
<path d="M62.5391 40.2352V35.8828H63.357V38.3024L66.1709 35.8828H67.2468L65.1875 37.6695L67.3028 40.2352H66.2512L64.5789 38.1637L63.357 39.152V40.2352H62.5391Z" fill="black"/>
<path d="M74.5519 40.2352L72.4609 35.8828H73.3786L74.6006 38.5069C74.6469 38.5994 74.6955 38.7041 74.7467 38.8209C74.7978 38.9377 74.8489 39.0522 74.8976 39.1641C74.9487 39.2761 74.9901 39.371 75.0242 39.4514H75.0753C75.1094 39.3759 75.1483 39.2834 75.1946 39.1714C75.2408 39.0619 75.2895 38.9499 75.343 38.8331C75.3966 38.7162 75.4453 38.6116 75.4915 38.5142L76.7208 35.8852H77.5898L75.5061 40.2376H74.5495L74.5519 40.2352Z" fill="black"/>
<path d="M81.7852 40.2352V35.8828H82.603V40.2352H81.7852Z" fill="black"/>
<path d="M87.3242 40.2352V35.8828H91.6644V36.5741H88.1421V37.6695H91.2968V38.3608H88.1421V39.5463H91.7155V40.2376H87.3242V40.2352Z" fill="black"/>
<path d="M97.1816 40.2376L95.6797 35.8852H96.5657L97.5102 38.7795C97.5272 38.8258 97.5467 38.8891 97.5662 38.9694C97.5881 39.0497 97.61 39.13 97.6368 39.2128C97.6611 39.2956 97.683 39.371 97.7001 39.4368H97.7439C97.7512 39.3856 97.7658 39.3321 97.7828 39.2712C97.7999 39.2128 97.8145 39.152 97.8315 39.0887C97.8461 39.0254 97.8607 38.967 97.8753 38.9134C97.8899 38.8598 97.9046 38.816 97.9167 38.7771L98.7784 35.8828H99.9055L100.774 38.7771C100.787 38.8233 100.804 38.8866 100.826 38.9645C100.848 39.0424 100.869 39.1252 100.891 39.2079C100.916 39.2931 100.933 39.3686 100.945 39.4368H100.989C101.001 39.3905 101.015 39.337 101.033 39.2761C101.05 39.2152 101.067 39.1544 101.086 39.096C101.106 39.0375 101.123 38.9791 101.14 38.9256C101.157 38.8696 101.171 38.8209 101.183 38.7795L102.128 35.8852H102.934L101.427 40.2376H100.407L99.5014 37.3044C99.4844 37.2484 99.4649 37.1827 99.4405 37.1024C99.4162 37.022 99.3967 36.9417 99.3797 36.8589C99.3626 36.7762 99.348 36.7031 99.3359 36.6399H99.2921C99.2848 36.7031 99.2677 36.7786 99.2458 36.8638C99.2215 36.9514 99.1996 37.0318 99.1801 37.1121C99.1582 37.19 99.1387 37.2557 99.1241 37.3044L98.238 40.2376H97.1865H97.1816Z" fill="black"/>
<path d="M109.176 40.3114C108.859 40.3114 108.56 40.2919 108.275 40.2554C107.993 40.2164 107.742 40.1483 107.528 40.046C107.311 39.9438 107.143 39.8051 107.024 39.6249C106.902 39.4448 106.844 39.2111 106.844 38.9239V38.8825C106.844 38.8679 106.844 38.8557 106.851 38.8484H107.662C107.657 38.8655 107.654 38.8874 107.652 38.9117C107.649 38.936 107.649 38.9677 107.649 38.9993C107.649 39.143 107.71 39.2622 107.834 39.3572C107.956 39.4521 108.131 39.5227 108.36 39.5665C108.589 39.6103 108.857 39.6322 109.164 39.6322C109.302 39.6322 109.441 39.6249 109.577 39.6128C109.714 39.6006 109.845 39.5811 109.967 39.5519C110.089 39.5251 110.198 39.4886 110.293 39.4448C110.388 39.401 110.463 39.345 110.522 39.2768C110.578 39.2087 110.607 39.1308 110.607 39.0431C110.607 38.9166 110.556 38.8143 110.456 38.7364C110.354 38.6585 110.218 38.5953 110.045 38.5466C109.872 38.4979 109.677 38.4589 109.458 38.4273C109.241 38.3956 109.018 38.3616 108.786 38.3251C108.555 38.2885 108.333 38.2423 108.117 38.1814C107.9 38.123 107.708 38.0451 107.535 37.9526C107.362 37.8601 107.223 37.7384 107.124 37.5875C107.021 37.4366 106.973 37.254 106.973 37.0325C106.973 36.8426 107.019 36.6722 107.109 36.5213C107.199 36.3704 107.335 36.2414 107.518 36.1343C107.701 36.0272 107.927 35.9444 108.202 35.886C108.477 35.83 108.801 35.8008 109.171 35.8008C109.541 35.8008 109.867 35.8324 110.135 35.8957C110.403 35.959 110.619 36.0466 110.787 36.1586C110.955 36.2706 111.079 36.3996 111.157 36.5481C111.235 36.6966 111.274 36.8548 111.274 37.0228V37.1299H110.476V37.0276C110.476 36.9254 110.424 36.8353 110.32 36.7526C110.215 36.6698 110.072 36.6041 109.882 36.553C109.694 36.5018 109.475 36.4775 109.227 36.4775C108.901 36.4775 108.635 36.4994 108.428 36.5432C108.222 36.587 108.068 36.6479 107.968 36.7233C107.869 36.7988 107.82 36.8913 107.82 36.996C107.82 37.1007 107.869 37.1956 107.968 37.2662C108.068 37.3368 108.204 37.3928 108.377 37.4341C108.55 37.4755 108.745 37.5145 108.964 37.5461C109.181 37.5778 109.405 37.6118 109.636 37.6508C109.867 37.6897 110.089 37.736 110.305 37.7944C110.522 37.8528 110.714 37.9283 110.887 38.0256C111.06 38.123 111.199 38.2447 111.298 38.3932C111.401 38.5417 111.449 38.7218 111.449 38.9385C111.449 39.272 111.352 39.5397 111.162 39.7393C110.97 39.9389 110.704 40.085 110.364 40.1726C110.023 40.2603 109.628 40.3065 109.176 40.3065V40.3114Z" fill="black"/>
</g>
<defs>
<clipPath id="clip0_904_834">
<rect width="147.328" height="40.3129" fill="white"/>
</clipPath>
</defs>
</svg>
